<svg width="32" height="32" viewBox="0 0 32 32" fill="none" xmlns="http://www.w3.org/2000/svg">
<g id="vuesax/outline/call-calling">
<g id="call-calling">
<path id="Vector" d="M23.2672 30.3323C21.7606 30.3323 20.1739 29.9723 18.5339 29.279C16.9339 28.599 15.3206 27.6656 13.7472 26.5323C12.1872 25.3856 10.6806 24.1056 9.2539 22.7056C7.84057 21.279 6.56057 19.7723 5.42724 18.2256C4.28057 16.6256 3.36057 15.0256 2.70724 13.479C2.0139 11.8256 1.66724 10.2256 1.66724 8.71898C1.66724 7.67898 1.8539 6.69232 2.2139 5.77232C2.58724 4.82565 3.18724 3.94565 4.00057 3.18565C5.02724 2.17232 6.20057 1.66565 7.4539 1.66565C7.9739 1.66565 8.50724 1.78565 8.96057 1.99898C9.48057 2.23898 9.92057 2.59898 10.2406 3.07898L13.3339 7.43898C13.6139 7.82565 13.8272 8.19898 13.9739 8.57232C14.1472 8.97232 14.2406 9.37232 14.2406 9.75898C14.2406 10.2656 14.0939 10.759 13.8139 11.2256C13.6139 11.5856 13.3072 11.9723 12.9206 12.359L12.0139 13.3056C12.0272 13.3456 12.0406 13.3723 12.0539 13.399C12.2139 13.679 12.5339 14.159 13.1472 14.879C13.8006 15.6256 14.4139 16.3056 15.0272 16.9323C15.8139 17.7056 16.4672 18.319 17.0806 18.8256C17.8406 19.4656 18.3339 19.7856 18.6272 19.9323L18.6006 19.999L19.5739 19.039C19.9872 18.6256 20.3872 18.319 20.7739 18.119C21.5072 17.6656 22.4406 17.5856 23.3739 17.9723C23.7206 18.119 24.0939 18.319 24.4939 18.599L28.9206 21.7456C29.4139 22.079 29.7739 22.5056 29.9872 23.0123C30.1872 23.519 30.2806 23.9856 30.2806 24.4523C30.2806 25.0923 30.1339 25.7323 29.8539 26.3323C29.5739 26.9323 29.2272 27.4523 28.7872 27.9323C28.0272 28.7723 27.2006 29.3723 26.2406 29.759C25.3206 30.1323 24.3206 30.3323 23.2672 30.3323ZM7.4539 3.66565C6.72057 3.66565 6.04057 3.98565 5.38724 4.62565C4.7739 5.19898 4.34724 5.82565 4.08057 6.50565C3.80057 7.19898 3.66724 7.93232 3.66724 8.71898C3.66724 9.95898 3.96057 11.3056 4.54724 12.6923C5.14724 14.1056 5.98724 15.5723 7.0539 17.039C8.12057 18.5056 9.3339 19.9323 10.6672 21.279C12.0006 22.599 13.4406 23.8256 14.9206 24.9056C16.3606 25.959 17.8406 26.8123 19.3072 27.4256C21.5872 28.399 23.7206 28.6256 25.4806 27.8923C26.1606 27.6123 26.7606 27.1856 27.3072 26.5723C27.6139 26.239 27.8539 25.879 28.0539 25.4523C28.2139 25.119 28.2939 24.7723 28.2939 24.4256C28.2939 24.2123 28.2539 23.999 28.1472 23.759C28.1072 23.679 28.0272 23.5323 27.7739 23.359L23.3472 20.2123C23.0806 20.0256 22.8406 19.8923 22.6139 19.799C22.3206 19.679 22.2006 19.559 21.7472 19.839C21.4806 19.9723 21.2406 20.1723 20.9739 20.439L19.9606 21.439C19.4406 21.9456 18.6406 22.0656 18.0272 21.839L17.6672 21.679C17.1206 21.3856 16.4806 20.9323 15.7739 20.3323C15.1339 19.7856 14.4406 19.1456 13.6006 18.319C12.9472 17.6523 12.2939 16.9456 11.6139 16.159C10.9872 15.4256 10.5339 14.799 10.2539 14.279L10.0939 13.879C10.0139 13.5723 9.98724 13.399 9.98724 13.2123C9.98724 12.7323 10.1606 12.3056 10.4939 11.9723L11.4939 10.9323C11.7606 10.6656 11.9606 10.4123 12.0939 10.1856C12.2006 10.0123 12.2406 9.86565 12.2406 9.73232C12.2406 9.62565 12.2006 9.46565 12.1339 9.30565C12.0406 9.09232 11.8939 8.85232 11.7072 8.59898L8.6139 4.22565C8.48057 4.03898 8.32057 3.90565 8.12057 3.81232C7.90724 3.71898 7.68057 3.66565 7.4539 3.66565ZM18.6006 20.0123L18.3872 20.919L18.7472 19.9856C18.6806 19.9723 18.6272 19.9856 18.6006 20.0123Z" fill="#121212"/>
<path id="Vector_2" d="M24.6673 12.9991C24.1206 12.9991 23.6673 12.5457 23.6673 11.9991C23.6673 11.5191 23.1873 10.5191 22.3873 9.66573C21.6006 8.82573 20.7339 8.3324 20.0006 8.3324C19.4539 8.3324 19.0006 7.87906 19.0006 7.3324C19.0006 6.78573 19.4539 6.3324 20.0006 6.3324C21.2939 6.3324 22.6539 7.02573 23.8406 8.2924C24.9473 9.47906 25.6673 10.9324 25.6673 11.9991C25.6673 12.5457 25.2139 12.9991 24.6673 12.9991Z" fill="#121212"/>
<path id="Vector_3" d="M29.3339 12.999C28.7873 12.999 28.3339 12.5456 28.3339 11.999C28.3339 7.39898 24.6006 3.66565 20.0006 3.66565C19.4539 3.66565 19.0006 3.21232 19.0006 2.66565C19.0006 2.11898 19.4539 1.66565 20.0006 1.66565C25.6939 1.66565 30.3339 6.30565 30.3339 11.999C30.3339 12.5456 29.8806 12.999 29.3339 12.999Z" fill="#121212"/>
</g>
</g>
</svg>
