<svg width="32" height="32" viewBox="0 0 32 32" fill="none" xmlns="http://www.w3.org/2000/svg">
<g id="Iconsax/Linear/instagram">
<path id="Vector" d="M12 29.3333H20C26.6666 29.3333 29.3333 26.6666 29.3333 20V12C29.3333 5.33329 26.6666 2.66663 20 2.66663H12C5.33329 2.66663 2.66663 5.33329 2.66663 12V20C2.66663 26.6666 5.33329 29.3333 12 29.3333Z" stroke="black" stroke-width="1.5" stroke-linecap="round" stroke-linejoin="round"/>
<path id="Vector_2" d="M16 20.6667C16.6129 20.6667 17.2197 20.546 17.7859 20.3115C18.3521 20.077 18.8665 19.7332 19.2999 19.2999C19.7332 18.8665 20.077 18.3521 20.3115 17.7859C20.546 17.2197 20.6667 16.6129 20.6667 16C20.6667 15.3872 20.546 14.7804 20.3115 14.2142C20.077 13.648 19.7332 13.1335 19.2999 12.7002C18.8665 12.2669 18.3521 11.9231 17.7859 11.6886C17.2197 11.4541 16.6129 11.3334 16 11.3334C14.7624 11.3334 13.5754 11.825 12.7002 12.7002C11.825 13.5754 11.3334 14.7624 11.3334 16C11.3334 17.2377 11.825 18.4247 12.7002 19.2999C13.5754 20.175 14.7624 20.6667 16 20.6667Z" stroke="black" stroke-width="1.5" stroke-linecap="round" stroke-linejoin="round"/>
<path id="Vector_3" d="M23.5146 9.33337H23.5306" stroke="black" stroke-width="2" stroke-linecap="round" stroke-linejoin="round"/>
</g>
</svg>
