<svg width="233" height="9" viewBox="0 0 233 9" fill="none" xmlns="http://www.w3.org/2000/svg">
<path id="Line 2" d="M232.355 4.85355C232.55 4.65829 232.55 4.34171 232.355 4.14645L229.173 0.964466C228.977 0.769204 228.661 0.769204 228.466 0.964466C228.27 1.15973 228.27 1.47631 228.466 1.67157L231.294 4.5L228.466 7.32843C228.27 7.52369 228.27 7.84027 228.466 8.03553C228.661 8.2308 228.977 8.2308 229.173 8.03553L232.355 4.85355ZM-0.00109863 5H1.99892V4H-0.00109863V5ZM5.99896 5H9.99899V4H5.99896V5ZM13.999 5H17.9991V4H13.999V5ZM21.9991 5H25.9991V4H21.9991V5ZM29.9992 5H33.9992V4H29.9992V5ZM37.9993 5H41.9993V4H37.9993V5ZM45.9993 5H49.9994V4H45.9993V5ZM53.9994 5H57.9995V4H53.9994V5ZM61.9995 5H65.9995V4H61.9995V5ZM69.9996 5H73.9996V4H69.9996V5ZM77.9996 5H81.9997V4H77.9996V5ZM85.9997 5H89.9998V4H85.9997V5ZM93.9998 5H97.9998V4H93.9998V5ZM102 5H106V4H102V5ZM110 5H114V4H110V5ZM118 5H122V4H118V5ZM126 5H130V4H126V5ZM134 5H138V4H134V5ZM142 5H146V4H142V5ZM150 5H154V4H150V5ZM158 5H162V4H158V5ZM166 5H170V4H166V5ZM174 5H178.001V4H174V5ZM182.001 5H186.001V4H182.001V5ZM190.001 5H194.001V4H190.001V5ZM198.001 5H202.001V4H198.001V5ZM206.001 5H210.001V4H206.001V5ZM214.001 5H218.001V4H214.001V5ZM222.001 5H226.001V4H222.001V5ZM230.001 5H232.001V4H230.001V5Z" fill="#D8D8D8"/>
</svg>
