<svg width="428" height="89" viewBox="0 0 428 89" fill="none" xmlns="http://www.w3.org/2000/svg">
<path d="M81.2531 46.271C66.9808 43.9574 60.8974 34.6308 46.4781 33.5647C28.3611 32.2253 1.72478 46.256 1.72478 46.256L0 46.6053V88.0678H428V0.963135C428 0.963135 426.981 1.26807 426.328 1.4647C407.587 7.11081 398.418 17.7755 378.847 17.5147C360.016 17.2638 352.064 3.76064 333.372 1.4647C295.253 -3.21737 278.765 35.6278 240.416 33.5647C212.871 32.0828 201.102 11.9499 173.541 10.8272C134.965 9.25581 119.363 52.4484 81.2531 46.271Z" fill="url(#paint0_linear_1817_1122)" fill-opacity="0.06"/>
<defs>
<linearGradient id="paint0_linear_1817_1122" x1="214" y1="51.1194" x2="214" y2="74.6928" gradientUnits="userSpaceOnUse">
<stop stop-color="#771132"/>
<stop offset="1" stop-color="#EEE3E7"/>
</linearGradient>
</defs>
</svg>
