<svg width="273" height="124" viewBox="0 0 273 124" fill="none" xmlns="http://www.w3.org/2000/svg">
<path fill-rule="evenodd" clip-rule="evenodd" d="M133.757 0C134.76 0 139.318 0.911765 143.786 2.18824C148.254 3.46471 160.38 6.74706 170.683 9.48235C180.986 12.2176 203.598 18.2353 221.013 22.8853C238.427 27.5353 252.56 31.4559 252.468 31.6382C252.377 31.8206 244.263 30.2706 234.507 28.2647C224.751 26.2588 210.801 23.3412 203.507 21.8824C196.213 20.4235 178.068 16.6853 163.115 13.6765C148.254 10.5765 135.124 8.11471 133.939 8.11471C132.845 8.11471 125.551 9.48235 117.801 11.2147C110.051 12.9471 92.8184 16.8676 79.5066 19.8765C66.1949 22.8853 45.6802 27.5353 33.8272 30.1794C21.9743 32.8235 11.8537 35.3765 11.489 35.7412C11.0331 36.1971 14.4066 47.6853 19.0566 61.7265C26.6243 84.2471 27.536 87.7118 27.536 100.203L50.786 99.7471L51.2419 84.7029H59.4478V123.909H51.2419V108.409H27.536V123.909H19.3302L18.8743 85.1588L9.4831 58.9912C4.37721 44.4941 0.0919191 32.1853 0.000742629 31.5471C-0.0904338 30.6353 8.20662 28.4471 28.9949 23.7059C44.9507 20.0588 74.6743 13.3118 95.0066 8.66176C115.339 3.92059 132.754 0.0911765 133.757 0V0ZM126.098 27.2618C126.554 27.2618 126.645 27.9912 126.371 28.9029C126.098 29.7235 126.463 30.9088 127.283 31.6382C128.56 32.6412 128.56 33.0059 126.918 35.2853C125.46 37.2912 125.277 38.0206 126.189 39.1147C126.827 39.8441 127.921 40.7559 128.468 41.2118C129.38 41.6676 129.289 42.3971 128.195 44.4029C126.736 46.7735 126.736 46.9559 128.833 48.5059C130.018 49.4176 131.386 50.3294 131.933 50.5118C132.389 50.6941 132.207 51.2412 131.477 51.7882C130.748 52.2441 129.289 53.3382 128.286 54.0676C126.463 55.5265 126.554 55.5265 129.38 58.2618C132.389 60.9971 132.389 60.9971 130.565 62.6382C129.471 63.4588 128.651 64.7353 128.742 65.3735C128.742 65.9206 130.11 66.7412 131.66 67.0147C133.939 67.3794 134.304 67.7441 133.301 68.3824C132.571 68.8382 130.565 69.2029 128.924 69.2029C127.374 69.2029 125.824 68.6559 125.551 68.1088C125.368 67.4706 124.274 59.9941 123.271 51.4235C122.268 42.9441 121.448 35.0118 121.357 34.0088C121.265 32.9147 122.177 31 123.271 29.6324C124.365 28.3559 125.642 27.2618 126.098 27.2618ZM113.698 28.1735L116.068 48.4147C117.801 63.2765 118.165 69.0206 117.436 69.8412C116.889 70.3882 114.701 71.0265 112.695 71.2088C108.957 71.4824 108.683 71.3 82.6978 46.8647L82.4243 50.0559C82.3331 51.7882 82.789 57.7147 83.5184 63.2765C84.1566 68.8382 84.5213 73.5794 84.1566 73.9441C83.8831 74.3088 81.786 74.6735 75.4949 75.1294L73.9449 61.4529C73.0331 53.9765 72.0302 44.4941 71.6655 40.4824C71.0272 33.4618 71.1184 33.1882 73.1243 32.55C74.2184 32.0941 76.4066 31.8206 77.7743 31.8206C79.8713 31.8206 82.8802 34.1 92.8184 43.4912C99.6566 49.8735 105.674 55.0706 106.221 55.0706C106.86 55.0706 107.224 54.0676 107.042 52.7912C106.951 51.5147 106.221 45.7706 105.583 40.0265C104.945 34.2824 104.58 29.2676 104.763 28.9029C104.945 28.4471 107.042 28.1735 113.698 28.1735ZM143.148 29.0853C144.515 29.0853 150.533 29.7235 156.551 30.5441C162.568 31.3647 168.495 32.4588 169.771 33.0971C171.048 33.8265 172.598 35.4676 173.236 36.9265C174.239 39.2059 174.148 42.1235 172.142 57.35C170.865 67.1059 169.68 75.2206 169.589 75.4029C169.407 75.5853 167.401 75.4941 160.654 74.6735L161.201 69.4765C161.474 66.5588 161.839 63.4588 162.113 62.6382C162.386 61.4529 161.839 60.9059 159.924 60.5412C158.557 60.3588 153.724 59.7206 149.257 59.1735C144.789 58.6265 140.321 57.9882 139.41 57.8059C138.589 57.5324 137.86 57.7147 137.86 58.2618C137.86 58.8088 137.495 59.1735 136.948 59.1735C136.401 59.1735 136.036 58.9 136.036 58.5353C136.036 58.0794 137.313 57.0765 141.507 54.6147L138.042 48.6882L142.236 49.0529C144.607 49.2353 150.26 49.7824 163.207 51.4235L163.754 48.6882C164.118 47.2294 164.301 44.8588 164.301 43.4912C164.301 42.0324 164.21 40.9382 164.027 40.9382C163.936 40.9382 159.377 40.3 153.815 39.5706C148.254 38.8412 143.421 38.2029 142.874 38.2029C142.327 38.2029 141.415 36.9265 140.777 35.2853C140.139 33.6441 139.865 31.5471 140.23 30.7265C140.504 29.7235 141.689 29.0853 143.148 29.0853ZM54.6155 34.6471C58.4449 34.5559 59.9037 35.0118 61.7272 36.6529C63.0037 37.7471 64.3713 39.9353 64.8272 41.3941C65.2831 42.9441 65.3743 44.5853 65.1007 45.1324C64.736 45.6794 62.7302 46.4088 60.5419 46.7735C57.1684 47.2294 56.6213 47.0471 55.9831 45.4059C55.436 43.8559 54.7978 43.5824 52.1537 44.0382C50.4213 44.3118 47.0478 44.7676 44.586 45.0412C42.2155 45.3147 38.4772 45.6794 32.0949 46.4088V50.0559C32.0949 53.2471 32.3684 53.7029 34.1007 53.7029C35.286 53.7029 41.1213 53.0647 47.139 52.3353C53.1566 51.5147 59.0831 51.15 60.3596 51.4235C61.636 51.6971 63.5507 52.7912 64.6449 53.8853C66.1949 55.4353 66.9243 57.7147 67.4713 62.3647C67.9272 65.9206 68.0184 69.75 67.7449 70.9353C67.4713 72.1206 66.1949 74.0353 64.9184 75.0382C63.0949 76.6794 60.1772 77.3176 49.4184 78.5941C42.1243 79.5059 34.9213 80.1441 33.4625 80.1441C31.8213 80.2353 29.7243 79.3235 28.1743 77.8647C26.7154 76.4971 25.5302 74.2176 25.1654 72.2118C24.8919 70.2971 24.8007 68.6559 24.9831 68.6559C25.1654 68.5647 27.1713 68.2912 29.5419 67.9265C33.4625 67.4706 33.9184 67.5618 33.9184 69.2029C33.9184 70.7529 34.3743 70.9353 37.2919 70.5706C39.2066 70.2971 44.4037 69.6588 48.9625 69.2029C53.4302 68.7471 57.4419 68.2912 57.8066 68.2912C58.2625 68.2912 58.536 67.1971 58.536 65.8294C58.536 64.3706 58.0802 62.6382 57.6243 61.9088C56.8949 60.7235 55.3449 60.7235 43.9478 62.1824C36.1978 63.0941 30.3625 63.4588 29.086 63.0029C27.9919 62.5471 26.1684 60.9971 25.0743 59.5382C23.6154 57.7147 22.7949 55.0706 22.4302 50.9676C21.9743 46.7735 22.2478 44.2206 23.0684 42.3059C23.7978 40.8471 25.439 39.1147 26.6243 38.4765C27.9007 37.8382 33.6449 36.8353 39.389 36.1059C45.1331 35.3765 52.0625 34.7382 54.6155 34.6471ZM188.645 34.6471C188.827 34.5559 195.392 35.3765 203.233 36.3794C211.165 37.3824 219.189 38.3853 221.013 38.6588C224.477 39.1147 224.477 39.2059 224.477 43.2176C224.477 45.5882 224.021 47.5029 223.292 47.7765C222.745 48.05 215.633 47.5029 207.61 46.4088C199.586 45.4059 192.383 44.5853 191.654 44.5853C190.56 44.5853 189.921 47.1382 188.736 56.1647C187.642 64.9176 187.551 68.0176 188.28 68.4735C188.918 68.7471 193.477 69.4765 198.492 70.1147C203.507 70.6618 210.436 71.5735 220.374 73.0323L220.01 77.2265C219.827 79.5971 219.645 81.6029 219.554 81.7853C219.554 81.9676 212.26 81.2382 203.507 80.1441C194.754 79.1412 186.092 77.8647 184.36 77.5C182.627 77.0441 180.439 75.5853 179.527 74.3088C178.707 73.0323 177.977 70.3882 177.977 68.5647C177.977 66.65 178.798 59.3559 179.801 52.3353C180.986 44.0382 182.08 38.9324 183.083 37.8382C183.813 36.9265 185.363 35.8324 186.457 35.3765C187.551 35.0118 188.554 34.6471 188.645 34.6471ZM234.871 40.3912C236.421 40.6647 238.245 40.9382 238.792 40.9382C239.704 40.9382 239.886 43.0353 239.065 58.2618L241.801 58.5353C243.26 58.6265 245.083 58.7176 245.812 58.7176C246.542 58.7176 250.736 55.4353 255.113 51.4235C262.315 44.8588 263.41 44.1294 266.327 44.4029C268.151 44.5853 270.339 44.8588 271.16 45.1324C272.071 45.3147 272.801 46.1353 272.801 46.8647C272.801 47.5941 268.88 51.7882 264.139 56.2559C259.307 60.6324 255.477 64.5529 255.477 65.1C255.477 65.6471 258.213 70.2059 261.404 75.4029C264.686 80.5088 267.239 85.3412 267.057 86.1618C266.965 86.8912 266.601 87.5294 266.145 87.5294C265.78 87.4382 263.865 87.4382 261.86 87.4382C258.213 87.4382 258.213 87.3471 252.104 78.1382C248.821 72.9412 245.995 68.6559 245.995 68.5647C245.904 68.5647 244.08 68.2 241.801 67.8353C237.698 67.1971 237.698 67.1971 237.06 70.2971C236.695 71.9382 236.057 75.8588 235.692 79.05C235.054 84.1559 235.145 84.7029 236.513 84.7029C237.88 84.7029 238.154 85.4324 237.698 92.4529L210.345 93.3647L210.071 96.3735C209.889 98.7441 210.254 99.3824 211.895 99.7471C213.08 100.021 218.095 100.294 232.227 100.659L232.683 108.409H209.889V115.703H238.154V123.909H201.683V84.7029L208.248 84.6118C211.895 84.6118 217.365 84.5206 225.754 84.2471L228.307 63.2765C229.674 51.7882 231.133 41.7588 231.407 41.0294C231.863 40.2088 232.865 39.9353 234.871 40.3912ZM125.186 82.5147C125.642 82.6971 125.277 83.7 124.365 84.7029C123.545 85.7971 122.542 86.6176 122.086 86.5265C121.721 86.5265 121.357 85.8882 121.265 85.1588C121.174 84.5206 121.904 83.5176 122.815 82.9706C123.727 82.5147 124.821 82.3324 125.186 82.5147ZM100.477 84.7029L102.757 87.4382C104.945 90.0824 105.036 90.5382 105.036 118.438L99.7478 123.909H85.5243C71.6655 123.909 71.2096 123.818 65.8302 119.35V104.306C65.9213 89.5353 66.0125 89.0794 68.1096 86.9824C70.2978 84.7029 70.5713 84.7029 100.477 84.7029ZM110.598 84.6118L119.168 85.1588L119.351 90.4471C119.624 95.4618 119.715 95.6441 121.904 95.1882C123.727 94.8235 124.092 95.0971 123.91 96.3735C123.818 97.1941 122.815 98.2882 121.63 98.8353C119.807 99.6559 119.624 100.294 119.624 115.703H124.183C126.645 115.703 129.38 115.521 130.11 115.247C130.839 114.974 131.477 113.971 131.477 112.968C131.477 111.965 132.115 110.871 132.845 110.506C133.574 110.05 134.577 110.05 134.942 110.415C135.307 110.871 134.76 111.965 131.933 114.791L133.757 115.338C134.76 115.703 136.948 115.703 141.507 114.791V102.482C141.507 95.7353 141.233 90.3559 140.777 90.6294C140.413 90.8118 139.227 90.3559 138.042 89.4441C136.492 88.35 136.218 87.6206 136.857 86.9824C137.525 86.3745 138.224 86.4657 138.954 87.2559C139.592 87.8941 140.413 88.35 140.777 88.35C141.233 88.35 141.689 87.5294 141.963 86.5265C142.327 84.9765 143.057 84.7029 150.168 85.1588L150.442 100.659C150.624 111.691 150.351 116.888 149.53 118.803C148.892 120.262 147.524 121.994 146.521 122.724C145.154 123.544 141.051 123.909 131.204 123.909C123.818 123.909 116.798 123.544 115.521 122.997C114.245 122.45 112.604 120.626 111.874 118.894C110.871 116.432 110.507 112.056 110.598 100.112V84.6118ZM175.607 84.7941C190.013 84.7029 190.286 84.7029 192.748 86.9824C194.754 88.8059 195.21 89.9912 195.027 92.7265C194.845 96.0088 194.663 96.1912 191.107 96.4647C188.098 96.6471 187.368 96.3735 186.821 94.8235C186.183 93.0912 185.454 93 164.21 93L164.665 99.8382L178.251 100.294C191.38 100.659 191.836 100.75 193.568 103.029C194.936 104.853 195.301 106.676 195.301 112.329C195.21 119.076 195.118 119.532 192.474 121.721C189.83 123.909 189.374 124 161.474 124L158.739 121.265C156.824 119.259 156.004 117.618 156.004 115.338C156.004 112.147 156.095 112.147 160.107 112.147C163.48 112.147 164.301 112.421 164.665 113.971C165.121 115.612 165.851 115.703 186.548 115.338L187.004 108.5H161.474L158.739 105.765C156.277 103.212 156.004 102.391 156.004 97.1029C156.004 93.8206 156.551 90.1735 157.098 89.0794C157.645 87.9853 158.83 86.5265 159.651 85.8882C160.563 85.1588 165.668 84.7941 175.607 84.7941ZM130.93 88.35C131.568 89.0794 131.113 90.0823 129.38 91.8147C127.01 94.1853 126.918 94.2765 126.28 92.5441C125.824 91.1765 126.28 90.2647 127.83 89.0794C129.289 87.8941 130.292 87.7118 130.93 88.35ZM134.03 95.6441C134.851 96.0088 135.945 96.9206 136.583 97.65C137.13 98.2882 137.313 99.5647 137.039 100.476C136.492 101.935 136.218 101.844 133.939 99.8382C132.48 98.4706 131.66 97.0118 131.933 96.1912C132.298 95.2794 132.936 95.0971 134.03 95.6441ZM134.304 103.029C134.76 103.029 135.307 103.303 135.489 103.668C135.763 104.032 134.942 105.4 133.665 106.676C131.477 108.865 131.386 108.865 131.204 107.041C131.113 106.038 131.66 104.671 132.298 104.124C133.027 103.485 133.939 103.029 134.304 103.029ZM127.557 103.941C128.195 103.941 128.924 104.762 129.107 105.765C129.38 106.768 129.198 108.044 128.742 108.682C128.286 109.321 126.645 110.506 122.268 113.059L121.813 110.506C121.357 108.5 121.813 107.588 123.818 105.947C125.277 104.853 126.918 103.941 127.557 103.941Z" fill="url(#paint0_linear_797_786)"/>
<defs>
<linearGradient id="paint0_linear_797_786" x1="272.801" y1="83.7" x2="126.93" y2="48.0426" gradientUnits="userSpaceOnUse">
<stop stop-color="#C91A44"/>
<stop offset="1" stop-color="#9A3396"/>
</linearGradient>
</defs>
</svg>
