<svg width="95" height="44" viewBox="0 0 95 44" fill="none" xmlns="http://www.w3.org/2000/svg">
<path fill-rule="evenodd" clip-rule="evenodd" d="M50.072 1.17121C48.5162 0.726692 46.9286 0.40918 46.5793 0.40918C46.2301 0.440931 40.1656 1.77448 33.0851 3.42555C29.2202 4.30945 24.3809 5.41093 19.8788 6.43566C16.133 7.28825 12.6206 8.08771 10.0972 8.66451C2.85787 10.3156 -0.0314926 11.0776 0.000258613 11.3951C0.0320099 11.6174 1.52432 15.9038 3.30239 20.9522L6.57277 30.0648L6.73152 43.5591H9.58914V38.1614H17.8445V43.5591H20.7021V29.9061H17.8445L17.6857 35.1451L9.58914 35.3038C9.58914 30.9539 9.27162 29.7473 6.63627 21.9048C5.01696 17.0151 3.84216 13.0144 4.00092 12.8557C4.12792 12.7287 7.65231 11.8396 11.78 10.9188C15.0715 10.1846 20.2813 9.00609 24.6075 8.02746C25.7065 7.77888 26.7484 7.54319 27.6873 7.33095C29.4148 6.9405 31.3319 6.50595 33.197 6.08317C36.337 5.37143 39.3297 4.69305 41.0229 4.31458C43.7217 3.71131 46.2618 3.23504 46.6428 3.23504C47.0556 3.23504 51.6278 4.09232 56.8032 5.17187C59.6416 5.743 62.8102 6.38961 65.517 6.94199C67.7761 7.403 69.7135 7.79837 70.869 8.02948C72.5221 8.3601 75.1569 8.90588 77.7319 9.43928C79.1136 9.72549 80.4781 10.0081 81.6645 10.2521C85.0619 10.9506 87.8877 11.4904 87.9195 11.4269C87.9512 11.3634 83.0298 9.99806 76.9653 8.37874C70.9008 6.75943 63.0265 4.66385 59.4386 3.71131C55.8507 2.75877 51.6278 1.61573 50.072 1.17121ZM44.0075 10.4743C44.1027 10.1568 44.071 9.9028 43.9122 9.9028C43.7535 9.9028 43.309 10.2838 42.928 10.7283C42.5469 11.2046 42.2294 11.8714 42.2612 12.2524C42.2929 12.6017 42.5787 15.364 42.928 18.3169C43.2772 21.3015 43.6582 23.9051 43.7217 24.1274C43.817 24.3179 44.3568 24.5084 44.8965 24.5084C45.468 24.5084 46.1666 24.3814 46.4206 24.2226C46.7699 24.0004 46.6428 23.8734 45.8491 23.7463C45.3093 23.6511 44.833 23.3653 44.833 23.1748C44.8013 22.9526 45.087 22.508 45.4681 22.2223C46.1031 21.6508 46.1031 21.6508 45.0553 20.6982C45.0291 20.6729 45.0035 20.6482 44.9787 20.6241C44.0698 19.7453 44.0562 19.7322 44.6743 19.2377C44.7533 19.1802 44.8404 19.1162 44.9309 19.0498C45.2404 18.8226 45.589 18.5667 45.7856 18.4439C46.0396 18.2534 46.1031 18.0629 45.9443 17.9994C45.7538 17.9359 45.2775 17.6184 44.8648 17.3008C44.1345 16.7611 44.1345 16.6976 44.6425 15.872C45.0235 15.1735 45.0553 14.9195 44.7378 14.7607L44.7377 14.7607C44.5472 14.602 44.1662 14.2845 43.944 14.0305C43.6265 13.6495 43.69 13.3954 44.198 12.6969C44.7695 11.9031 44.7695 11.7761 44.325 11.4269C44.0392 11.1729 43.9122 10.7601 44.0075 10.4743ZM40.4196 17.2691L39.5941 10.2203C37.2762 10.2203 36.5459 10.3156 36.4824 10.4743C36.4189 10.6013 36.5459 12.3477 36.7682 14.348C36.8691 15.2562 36.9766 16.1645 37.0668 16.9271C37.1753 17.844 37.2589 18.5505 37.2762 18.7932C37.3397 19.2377 37.2127 19.5869 36.9905 19.5869C36.8 19.5869 34.7044 17.7771 32.323 15.5545C28.8621 12.2841 27.8144 11.4904 27.0841 11.4904C26.6078 11.4904 25.8458 11.5856 25.4648 11.7444C24.7662 11.9666 24.7345 12.0619 24.9567 14.5067C25.0837 15.9038 25.433 19.2059 25.7505 21.8095L26.2903 26.5722C28.4811 26.4135 29.2114 26.2864 29.3067 26.1594C29.4337 26.0324 29.3067 24.3814 29.0844 22.4445C28.8304 20.5077 28.6716 18.4439 28.7034 17.8406L28.7986 16.7293C37.8477 25.2387 37.943 25.3022 39.2448 25.2069C39.9433 25.1434 40.7054 24.9211 40.8959 24.7306C41.1499 24.4449 41.0229 22.4445 40.4196 17.2691ZM54.5172 11.0458C52.4216 10.7601 50.326 10.5378 49.8497 10.5378C49.3417 10.5378 48.9289 10.7601 48.8337 11.1094C48.7067 11.3951 48.8019 12.1254 49.0242 12.6969C49.2464 13.2684 49.564 13.713 49.7545 13.713C49.9343 13.713 51.4437 13.911 53.2414 14.1468L53.5646 14.1892C54.7186 14.3406 55.7485 14.4806 56.3994 14.5691C56.8409 14.6292 57.1079 14.6655 57.1208 14.6655C57.1843 14.6655 57.216 15.0465 57.216 15.5545C57.216 16.0308 57.1525 16.8563 57.0255 17.3643L56.835 18.3169C52.3263 17.7454 50.3577 17.5549 49.5322 17.4914L48.0717 17.3643L49.2782 19.4282C47.8176 20.2855 47.3731 20.6347 47.3731 20.7935C47.3731 20.9205 47.5001 21.0157 47.6906 21.0157C47.8811 21.0157 48.0082 20.8887 48.0082 20.6982C48.0082 20.5077 48.2622 20.4442 48.5479 20.5395C48.8654 20.603 50.4212 20.8252 51.9771 21.0157C53.5329 21.2062 55.2157 21.4285 55.692 21.492C56.3587 21.619 56.5492 21.8095 56.454 22.2223C56.3587 22.508 56.2317 23.5876 56.1365 24.6036L55.946 26.4135C58.2956 26.6992 58.9941 26.731 59.0576 26.6675C59.0893 26.604 59.5021 23.7781 59.9466 20.3807C60.6451 15.0783 60.6769 14.0622 60.3276 13.2684C60.1054 12.7604 59.5656 12.1889 59.1211 11.9349C58.6766 11.7126 56.6127 11.3316 54.5172 11.0458ZM21.4959 13.1732C20.8608 12.6017 20.3528 12.4429 19.0193 12.4747C18.1302 12.5064 15.7171 12.7287 13.7168 12.9827C11.7165 13.2367 9.71614 13.5859 9.27162 13.8082C8.85886 14.0305 8.28734 14.6337 8.03333 15.1418C7.74756 15.8085 7.65231 16.6976 7.81107 18.1581C7.93807 19.5869 8.22383 20.5077 8.73185 21.1427C9.11287 21.6508 9.74789 22.1905 10.1289 22.3493C10.5734 22.5081 12.6055 22.381 15.3044 22.0635C19.2733 21.5555 19.813 21.5555 20.067 21.9683C20.2258 22.2223 20.3846 22.8256 20.3846 23.3336C20.3846 23.8099 20.2893 24.1909 20.1306 24.1909C20.0569 24.1909 19.5563 24.2442 18.8454 24.32C18.3302 24.375 17.7044 24.4417 17.0507 24.5084C15.4631 24.6671 13.6533 24.8894 12.9865 24.9846C11.9705 25.1117 11.8117 25.0482 11.8117 24.5084C11.8117 23.9369 11.653 23.9051 10.2877 24.0639C10.0486 24.1006 9.82012 24.1348 9.61468 24.1655C9.11077 24.2407 8.74521 24.2953 8.7001 24.3179C8.6366 24.3179 8.66835 24.8894 8.7636 25.5562C8.89061 26.2547 9.30338 27.0485 9.8114 27.5247C10.3512 28.0328 11.0814 28.3503 11.653 28.3185C12.161 28.3185 14.6693 28.0963 17.2094 27.7788C20.9561 27.3342 21.9721 27.112 22.6071 26.5405C23.0517 26.1912 23.4962 25.5244 23.5914 25.1117C23.6867 24.6989 23.6549 23.3653 23.4962 22.127C23.3057 20.5077 23.0517 19.7139 22.5119 19.1742C22.1309 18.7932 21.4641 18.4121 21.0196 18.3169C20.5751 18.2216 18.5112 18.3486 16.4157 18.6344C14.3201 18.8884 12.288 19.1107 11.8752 19.1107C11.272 19.1107 11.1767 18.9519 11.1767 17.8406V16.5706C12.5234 16.4167 13.5321 16.3094 14.3016 16.2275C14.802 16.1743 15.2013 16.1318 15.5266 16.0943C16.3839 15.999 17.5587 15.8403 18.162 15.745C19.0828 15.5863 19.305 15.6815 19.4955 16.2213C19.7178 16.7928 19.9083 16.8563 21.0831 16.6976C21.8451 16.5706 22.5436 16.3166 22.6707 16.126C22.7659 15.9355 22.7342 15.364 22.5754 14.8242C22.4166 14.3162 21.9404 13.5542 21.4959 13.1732ZM70.7738 13.0779C68.0432 12.7287 65.7571 12.4429 65.6936 12.4747C65.674 12.4747 65.533 12.5232 65.3383 12.5902C65.218 12.6317 65.0771 12.6802 64.9316 12.7287C64.5506 12.8874 64.0108 13.2684 63.7568 13.5859C63.4075 13.967 63.0265 15.745 62.6137 18.6344C62.2645 21.0792 61.9787 23.6193 61.9787 24.2861C61.9787 24.9211 62.2327 25.8419 62.5185 26.2864C62.836 26.731 63.598 27.239 64.2013 27.3977C64.8046 27.5247 67.8209 27.9693 70.869 28.3185C73.9172 28.6995 76.4573 28.9536 76.4573 28.8901C76.489 28.8265 76.5525 28.128 76.616 27.3025L76.743 25.8419C73.2822 25.3339 70.869 25.0164 69.1227 24.8259C67.3764 24.6036 65.7888 24.3496 65.5666 24.2544C65.3126 24.0956 65.3443 23.0161 65.7253 19.968C66.1381 16.8246 66.3604 15.9355 66.7414 15.9355C66.9954 15.9355 69.5037 16.2213 72.2979 16.5706C75.092 16.9516 77.5686 17.1421 77.7591 17.0468C78.0131 16.9516 78.1718 16.2848 78.1718 15.4593C78.1718 14.0622 78.1718 14.0305 76.9653 13.8717C76.4437 13.7935 74.4658 13.5439 72.2452 13.2637C71.762 13.2028 71.2674 13.1403 70.7738 13.0779ZM83.1568 14.6655C82.9663 14.6655 82.3312 14.5702 81.7915 14.475C81.0929 14.3162 80.7437 14.4115 80.5849 14.6972C80.4897 14.9513 79.9817 18.4439 79.5054 22.4445L78.6164 29.7473C75.6952 29.8426 73.7902 29.8743 72.5201 29.8743L70.234 29.9061V43.5591H82.9345V40.7015H73.0916V38.1614H81.0294L80.8707 35.4626C75.9492 35.3356 74.2029 35.2403 73.7902 35.1451C73.2186 35.018 73.0916 34.7958 73.1551 33.9703L73.2504 32.9225L82.7758 32.6049C82.9345 30.1601 82.8393 29.9061 82.363 29.9061C81.8867 29.9061 81.855 29.7156 82.0772 27.9375C82.2042 26.8262 82.4265 25.4609 82.5535 24.8894C82.6544 24.3991 82.7095 24.1315 82.8734 24.0063C83.0704 23.8557 83.4246 23.9108 84.2046 24.0321C84.714 24.1136 85.158 24.1951 85.4191 24.243C85.5649 24.2698 85.6538 24.2861 85.6651 24.2861C85.6651 24.3014 85.8927 24.6544 86.2562 25.218C86.6485 25.8265 87.1991 26.6805 87.7925 27.62L87.8949 27.7744C89.9201 30.8279 89.9405 30.8586 91.1898 30.8586C91.8884 30.8586 92.5552 30.8586 92.6822 30.8904C92.8409 30.8904 92.9679 30.6681 92.9997 30.4141C93.0632 30.1284 92.1741 28.4455 91.0311 26.6675C89.9198 24.8576 88.9673 23.2701 88.9673 23.0796C88.9673 22.8891 90.3008 21.5238 91.9836 19.9997C93.6347 18.4439 95 16.9833 95 16.7293C95 16.4753 94.746 16.1896 94.4285 16.126C94.1427 16.0308 93.3807 15.9355 92.7457 15.872C91.7296 15.7768 91.3486 16.0308 88.8403 18.3169C87.3162 19.7139 85.8556 20.857 85.6016 20.857C85.3476 20.857 84.7126 20.8252 84.2046 20.7935L83.252 20.6982C83.5378 15.3958 83.4743 14.6655 83.1568 14.6655ZM43.309 29.9061C43.6265 29.5568 43.7535 29.2076 43.5947 29.1441C43.4677 29.0806 43.0867 29.1441 42.7692 29.3028C42.4517 29.4933 42.1977 29.8426 42.2294 30.0648C42.2612 30.3189 42.3882 30.5411 42.5152 30.5411C42.6739 30.5729 43.0232 30.2871 43.309 29.9061ZM35.7839 30.8586L34.9901 29.9061C24.5757 29.9061 24.4805 29.9061 23.7184 30.6999C22.9882 31.4302 22.9564 31.5889 22.9247 36.7326V41.9716C24.798 43.5274 24.9567 43.5591 29.7829 43.5591H34.7361L36.5777 41.6541C36.5777 31.9382 36.5459 31.7794 35.7839 30.8586ZM41.4991 30.0648L38.5145 29.8743V35.2721C38.4828 39.4315 38.6098 40.9555 38.959 41.8128C39.2131 42.4161 39.7846 43.0511 40.2291 43.2416C40.6736 43.4321 43.1185 43.5591 45.6903 43.5591C49.1194 43.5591 50.5483 43.4321 51.0245 43.1464C51.3738 42.8924 51.85 42.2891 52.0723 41.7811C52.3581 41.1143 52.4533 39.3045 52.3898 35.4626L52.2946 30.0648C49.818 29.9061 49.564 30.0013 49.437 30.5411C49.3417 30.8904 49.1829 31.1761 49.0242 31.1761C48.8972 31.1761 48.6114 31.0174 48.3892 30.7951C48.1352 30.5199 47.8917 30.4882 47.6589 30.6999C47.4366 30.9221 47.5319 31.1761 48.0717 31.5572C48.4844 31.8747 48.8972 32.0334 49.0242 31.9699C49.1829 31.8747 49.2782 33.748 49.2782 36.0976V40.384C47.6906 40.7015 46.9286 40.7015 46.5793 40.5745L45.9443 40.384C46.9286 39.3997 47.1191 39.0187 46.9921 38.8599C46.8651 38.7329 46.5158 38.7329 46.2618 38.8917C46.0078 39.0187 45.7856 39.3997 45.7856 39.749C45.7856 40.0982 45.5633 40.4475 45.3093 40.5428C45.0553 40.638 44.1027 40.7015 43.2455 40.7015H41.6579C41.6579 35.3356 41.7214 35.1133 42.3564 34.8275C42.7692 34.637 43.1185 34.256 43.1502 33.9703C43.2137 33.5257 43.0867 33.4305 42.4517 33.5575C41.6897 33.7162 41.6579 33.6527 41.5626 31.9064L41.4991 30.0648ZM67.1224 30.6999C66.2651 29.9061 66.1699 29.9061 61.1532 29.9378C57.6923 29.9378 55.9142 30.0648 55.5967 30.3189C55.3109 30.5411 54.8982 31.0491 54.7077 31.4302C54.5172 31.8112 54.3266 33.0812 54.3266 34.2243C54.3266 36.0658 54.4219 36.3516 55.2792 37.2406L56.2317 38.1932H65.1221L64.9633 40.5745C57.7558 40.7015 57.5018 40.6698 57.343 40.0982C57.216 39.5585 56.9303 39.4632 55.7555 39.4632C54.3584 39.4632 54.3266 39.4632 54.3266 40.5745C54.3266 41.3683 54.6124 41.9398 55.2792 42.6383L56.2317 43.5909C65.9476 43.5909 66.1064 43.5591 67.0271 42.7971C67.9479 42.0351 67.9797 41.8763 68.0114 39.5267C68.0114 37.5581 67.8844 36.9231 67.4082 36.2881C66.8049 35.4943 66.6461 35.4626 62.074 35.3356L57.343 35.1768L57.1843 32.7955C64.5823 32.7955 64.8363 32.8272 65.0586 33.4305C65.2491 33.9703 65.5031 34.0655 66.5509 34.002C67.7892 33.9067 67.8527 33.8432 67.9162 32.7002C67.9797 31.7477 67.8209 31.3349 67.1224 30.6999ZM45.0553 32.3827C45.6586 31.7794 45.8173 31.4302 45.5951 31.1761C45.3728 30.9539 45.0235 31.0174 44.5155 31.4302C43.9757 31.8429 43.817 32.1604 43.9757 32.6367C44.198 33.24 44.2298 33.2082 45.0553 32.3827ZM47.5636 34.4148C47.3414 34.1608 46.9604 33.8432 46.6746 33.7162C46.2936 33.5257 46.0713 33.5892 45.9443 33.9067C45.8491 34.1925 46.1348 34.7005 46.6428 35.1768C47.4366 35.8753 47.5319 35.9071 47.7224 35.3991C47.8176 35.0815 47.7541 34.637 47.5636 34.4148ZM47.1826 36.5104C47.1191 36.3833 46.9286 36.2881 46.7698 36.2881C46.6428 36.2881 46.3253 36.4468 46.0713 36.6691C45.8491 36.8596 45.6586 37.3359 45.6903 37.6852C45.7538 38.3202 45.7856 38.3202 46.5476 37.5581C46.9921 37.1136 47.2779 36.6374 47.1826 36.5104ZM44.96 37.2406C44.8965 36.8914 44.6425 36.6056 44.4203 36.6056C44.198 36.6056 43.6265 36.9231 43.1185 37.3041C42.4199 37.8757 42.2612 38.1932 42.4199 38.8917L42.5787 39.7807C44.1027 38.8917 44.6743 38.4789 44.833 38.2567C44.9918 38.0344 45.0553 37.5899 44.96 37.2406ZM25.7823 36.7326V40.7015L33.5613 40.5428L33.6883 32.7637H25.7823V36.7326Z" fill="url(#paint0_linear_804_1016)"/>
<defs>
<linearGradient id="paint0_linear_804_1016" x1="95" y1="29.5568" x2="44.202" y2="17.1395" gradientUnits="userSpaceOnUse">
<stop stop-color="#C91A44"/>
<stop offset="1" stop-color="#9A3396"/>
</linearGradient>
</defs>
</svg>
