<svg width="49" height="30" viewBox="0 0 49 30" fill="none" xmlns="http://www.w3.org/2000/svg">
<g id="Mastercard svg" clip-path="url(#clip0_767_2128)">
<g id="Group">
<g id="Group_2">
<path id="Vector" d="M30.8704 3.20801H17.7296V26.7913H30.8704V3.20801Z" fill="#FF5F00"/>
<path id="Vector_2" d="M18.5642 14.9996C18.5642 10.4162 20.6918 6.04123 24.2794 3.2079C17.7716 -1.9171 8.34365 -0.792105 3.21249 5.74956C-1.91867 12.2496 -0.792319 21.6662 5.75721 26.7912C11.2221 31.0829 18.8563 31.0829 24.3212 26.7912C20.6918 23.9579 18.5642 19.5829 18.5642 14.9996Z" fill="#EB001B"/>
<path id="Vector_3" d="M48.6006 14.9996C48.6006 23.2912 41.8842 29.9996 33.5825 29.9996C30.2035 29.9996 26.9496 28.8746 24.3214 26.7912C30.8292 21.6662 31.9556 12.2496 26.8244 5.7079C26.0735 4.79123 25.2392 3.91623 24.3214 3.2079C30.8292 -1.9171 40.2989 -0.792105 45.3884 5.74956C47.4742 8.37456 48.6006 11.6246 48.6006 14.9996Z" fill="#F79E1B"/>
<path id="Vector_4" d="M47.1818 24.2913V23.7913H47.3904V23.708H46.8898V23.7913H47.0984V24.2913H47.1818ZM48.1413 24.2913V23.708H47.9744L47.8075 24.1247L47.6407 23.708H47.4738V24.2913H47.599V23.833L47.7658 24.208H47.891L48.0578 23.833V24.2913H48.1413Z" fill="#F79E1B"/>
</g>
</g>
</g>
<defs>
<clipPath id="clip0_767_2128">
<rect width="48.6" height="30" fill="white"/>
</clipPath>
</defs>
</svg>
