<svg width="32" height="32" viewBox="0 0 32 32" fill="none" xmlns="http://www.w3.org/2000/svg">
<g id="vuesax/outline/sms">
<g id="sms">
<path id="Vector" d="M22.6645 28.3315H9.33122C4.46455 28.3315 1.66455 25.5315 1.66455 20.6648V11.3315C1.66455 6.46479 4.46455 3.66479 9.33122 3.66479H22.6645C27.5312 3.66479 30.3312 6.46479 30.3312 11.3315V20.6648C30.3312 25.5315 27.5312 28.3315 22.6645 28.3315ZM9.33122 5.66479C5.51788 5.66479 3.66455 7.51813 3.66455 11.3315V20.6648C3.66455 24.4781 5.51788 26.3315 9.33122 26.3315H22.6645C26.4779 26.3315 28.3312 24.4781 28.3312 20.6648V11.3315C28.3312 7.51813 26.4779 5.66479 22.6645 5.66479H9.33122Z" fill="#121212"/>
<path id="Vector_2" d="M15.9994 17.1581C14.8794 17.1581 13.7461 16.8115 12.8794 16.1048L8.70604 12.7715C8.27938 12.4248 8.19938 11.7981 8.54605 11.3715C8.89272 10.9448 9.51939 10.8648 9.94605 11.2115L14.1194 14.5448C15.1327 15.3581 16.8527 15.3581 17.866 14.5448L22.0394 11.2115C22.466 10.8648 23.106 10.9315 23.4394 11.3715C23.786 11.7981 23.7194 12.4381 23.2794 12.7715L19.106 16.1048C18.2527 16.8115 17.1194 17.1581 15.9994 17.1581Z" fill="#121212"/>
</g>
</g>
</svg>
