<svg width="39" height="13" viewBox="0 0 39 13" fill="none" xmlns="http://www.w3.org/2000/svg">
<g id="Visa Inc. svg" clip-path="url(#clip0_767_2126)">
<path id="path3789" d="M25.4102 0C22.6447 0 20.1616 1.43902 20.1616 4.07971C20.1616 7.12094 24.5478 7.32863 24.5478 8.84184C24.5478 9.47975 23.8044 10.0583 22.5555 10.0583C20.7713 10.0583 19.4331 9.25722 19.4331 9.25722L18.8681 11.9276C18.8681 11.9276 20.3995 12.61 22.4514 12.61C25.4846 12.61 27.8635 11.1116 27.8635 8.41161C27.8635 5.20719 23.4625 4.99949 23.4625 3.59014C23.4625 3.08574 24.0721 2.53684 25.321 2.53684C26.7335 2.53684 27.8933 3.11541 27.8933 3.11541L28.4583 0.534071C28.4434 0.534071 27.1796 0 25.4102 0ZM0.0743424 0.192859L0 0.578576C0 0.578576 1.15974 0.78627 2.2154 1.21649C3.56843 1.70606 3.65764 1.98793 3.89554 2.86321L6.37857 12.4023H9.70911L14.809 0.192859H11.4933L8.2074 8.50062L6.86923 1.45386C6.75029 0.652753 6.12581 0.192859 5.35265 0.192859H0.0743424ZM16.1472 0.192859L13.5452 12.4023H16.7122L19.2993 0.192859H16.1472ZM33.7812 0.192859C33.0229 0.192859 32.6214 0.593412 32.3241 1.30551L27.6851 12.4023H31.0008L31.6401 10.5479H35.6843L36.0709 12.4023H39L36.4575 0.192859H33.7812ZM34.2124 3.50113L35.1937 8.08523H32.562L34.2124 3.50113Z" fill="#121212"/>
</g>
<defs>
<clipPath id="clip0_767_2126">
<rect width="39" height="12.61" fill="white"/>
</clipPath>
</defs>
</svg>
