<svg width="32" height="32" viewBox="0 0 32 32" fill="none" xmlns="http://www.w3.org/2000/svg">
<g id="Iconsax/Linear/whatsapp">
<path id="Vector" d="M9.19996 27.4666C11.2 28.6666 13.6 29.3333 16 29.3333C23.3333 29.3333 29.3333 23.3333 29.3333 16C29.3333 8.66663 23.3333 2.66663 16 2.66663C8.66663 2.66663 2.66663 8.66663 2.66663 16C2.66663 18.4 3.33329 20.6666 4.39996 22.6666L3.25329 27.0746C3.19413 27.3022 3.1962 27.5413 3.25929 27.7678C3.32237 27.9943 3.44423 28.2001 3.61251 28.3644C3.78079 28.5286 3.98949 28.6454 4.21747 28.7029C4.44544 28.7604 4.68458 28.7567 4.91063 28.692L9.19996 27.4666Z" stroke="black" stroke-width="1.5" stroke-miterlimit="10" stroke-linecap="round" stroke-linejoin="round"/>
<path id="Vector_2" d="M22 19.7973C22 20.0133 21.952 20.236 21.8493 20.452C21.7446 20.6752 21.6071 20.8815 21.4413 21.064C21.1467 21.388 20.8227 21.6213 20.4547 21.772C20.0947 21.9227 19.704 22 19.284 22C18.6707 22 18.016 21.856 17.324 21.5627C16.5924 21.2455 15.8991 20.8465 15.2573 20.3733C14.5593 19.8635 13.9006 19.3019 13.2867 18.6933C12.6793 18.0828 12.119 17.4272 11.6107 16.732C11.1435 16.0958 10.7482 15.4099 10.432 14.6867C10.144 14 10 13.3467 10 12.724C10 12.316 10.072 11.9267 10.216 11.5667C10.36 11.2 10.5893 10.864 10.908 10.564C11.292 10.1853 11.712 10 12.1573 10C12.3253 10 12.4933 10.036 12.644 10.108C12.8 10.18 12.9373 10.288 13.0467 10.444L14.4413 12.4067C14.548 12.556 14.628 12.6947 14.6813 12.8267C14.7347 12.952 14.7653 13.0787 14.7653 13.192C14.7636 13.3432 14.7197 13.491 14.6387 13.6187C14.5461 13.7748 14.4331 13.9178 14.3027 14.044L13.8453 14.5187C13.8135 14.5498 13.7886 14.5872 13.772 14.6285C13.7555 14.6699 13.7478 14.7142 13.7493 14.7587C13.7493 14.8053 13.756 14.848 13.768 14.896C13.7853 14.944 13.804 14.98 13.816 15.016C13.9227 15.2147 14.1093 15.472 14.3747 15.784C14.6453 16.096 14.9333 16.4147 15.2453 16.732C15.5707 17.0507 15.8827 17.344 16.2013 17.6147C16.5133 17.8773 16.772 18.0573 16.976 18.1653L17.0853 18.2147C17.1332 18.2318 17.1838 18.2399 17.2347 18.2387C17.2807 18.2397 17.3264 18.231 17.3688 18.2134C17.4113 18.1957 17.4496 18.1693 17.4813 18.136L17.9373 17.6853C18.088 17.536 18.232 17.4227 18.3707 17.3493C18.4982 17.2681 18.6461 17.2246 18.7973 17.224C18.9235 17.2259 19.0481 17.2526 19.164 17.3027C19.296 17.356 19.4347 17.4333 19.584 17.536L21.5733 18.9467C21.7175 19.0404 21.8321 19.1731 21.904 19.3293C21.9663 19.4775 21.9989 19.6366 22 19.7973Z" stroke="black" stroke-width="1.5" stroke-miterlimit="10"/>
</g>
</svg>
